<?xml version="1.0" encoding="UTF-8"?>
<svg version="1.1" xmlns="http://www.w3.org/2000/svg" width="168" height="48">
<path d="M0 0 C165 0 330 0 500 0 C500 165 500 330 500 500 C335 500 170 500 0 500 C0 335 0 170 0 0 Z " fill="#000000" transform="translate(0,0)"/>
<path d="M0 0 C1.3111377 0.00676758 2.62227539 0.01353516 3.97314453 0.02050781 C38.32160772 0.38506018 72.00052357 9.46821127 96.95385742 34.3894043 C102.34229712 40.06944739 108.89575407 48.17474579 109.453125 56.16015625 C109.38609375 56.84980469 109.3190625 57.53945312 109.25 58.25 C97.39594039 60.6508222 97.39594039 60.6508222 91.25 60.25 C89.78922186 58.78922186 89.8176031 57.33379593 89.4375 55.3125 C87.35170259 45.77526689 83.6910651 38.58375002 77.25 31.25 C76.73824219 30.64414063 76.22648438 30.03828125 75.69921875 29.4140625 C61.03742262 13.33338288 35.36147748 5.41902625 14.25 4.25 C9.83294762 4.09207187 5.41968039 4.02634683 1 4 C-0.07660889 3.9906543 -1.15321777 3.98130859 -2.26245117 3.97167969 C-26.0693133 4.06640437 -52.3238351 11.9659178 -70.01171875 28.4453125 C-80.12720674 38.94723486 -84.34942553 50.16940036 -84.09375 64.58203125 C-83.62795236 74.18716671 -78.99287379 82.15932853 -72.75 89.25 C-72.23824219 89.84296875 -71.72648437 90.4359375 -71.19921875 91.046875 C-66.42623941 96.19576918 -60.74722061 99.67643492 -54.75 103.25 C-54.01144775 103.76916992 -53.27289551 104.28833984 -52.51196289 104.82324219 C-49.11171758 106.57972001 -46.72628294 106.63356105 -42.91015625 106.65625 C-40.9446582 106.68912109 -40.9446582 106.68912109 -38.93945312 106.72265625 C-37.5638142 106.73344557 -36.18816104 106.7425456 -34.8125 106.75 C-32.11496296 106.76465533 -29.42012872 106.79868166 -26.72265625 106.84375 C-25.52906494 106.85083984 -24.33547363 106.85792969 -23.10571289 106.86523438 C-17.70006866 107.48504487 -13.82546031 109.58439859 -10.4375 113.8125 C-9.70080078 114.71162109 -9.70080078 114.71162109 -8.94921875 115.62890625 C-7.48382064 117.60981901 -6.70890908 118.67082427 -6.88623047 121.17016602 C-7.01488706 123.92798222 -6.81525793 125.68629336 -5.75 128.25 C-1.84692201 131.32079232 2.60815652 133.19377122 7.125 135.1875 C8.42315579 135.79186886 9.7195381 136.40006102 11.01416016 137.01196289 C13.58690878 138.22557943 16.16557829 139.42474157 18.75 140.61328125 C23.12599066 142.65964295 27.37982434 144.88527871 31.625 147.1875 C37.23834087 150.1979008 42.90474107 153.08105575 48.625 155.8828125 C49.95656197 156.53780317 51.28810477 157.19283281 52.61962891 157.84790039 C55.21022105 159.12170559 57.80688157 160.38178919 60.40771484 161.63452148 C71.92111411 167.24813352 82.68724978 173.88065681 91.6875 183.125 C92.27313721 183.71869385 92.85877441 184.3123877 93.4621582 184.92407227 C100.11408544 191.88569518 103.48178205 199.45749145 107.25 208.25 C118.8 208.58 130.35 208.91 142.25 209.25 C142.25 211.56 142.25 213.87 142.25 216.25 C131.36 216.25 120.47 216.25 109.25 216.25 C109.25 220.54 109.25 224.83 109.25 229.25 C108.92 230.57 108.59 231.89 108.25 233.25 C117.16 233.25 126.07 233.25 135.25 233.25 C135.25 235.56 135.25 237.87 135.25 240.25 C125.35 240.25 115.45 240.25 105.25 240.25 C104.26 243.22 103.27 246.19 102.25 249.25 C100.27 251.89 98.29 254.53 96.25 257.25 C111.43 257.58 126.61 257.91 142.25 258.25 C142.25 260.56 142.25 262.87 142.25 265.25 C141.60235184 265.24032196 140.95470367 265.23064392 140.28742981 265.22067261 C133.48864348 265.12906712 126.6921784 265.10869159 119.89282227 265.12792969 C117.36247165 265.12599431 114.83206633 265.10646721 112.30200195 265.06835938 C93.29683251 264.45936886 93.29683251 264.45936886 77.65356445 273.79541016 C76.86038818 274.6054248 76.06721191 275.41543945 75.25 276.25 C72.7475066 277.92202115 70.16521059 279.23740456 67.4375 280.5 C66.77282715 280.81807617 66.1081543 281.13615234 65.42333984 281.46386719 C52.39788561 287.57366623 39.37452007 291.57426804 25.25 294.25 C24.13753906 294.476875 23.02507812 294.70375 21.87890625 294.9375 C-12.67965087 301.02860432 -50.3596765 293.23042473 -79.75 274.25 C-92.10069194 265.48300821 -104.42521649 253.54400416 -107.75 238.25 C-104.53590032 235.03590032 -96.04137912 235.11770474 -91.625 235.0625 C-88.75 235.25 -88.75 235.25 -87.75 236.25 C-87.33582845 238.3923694 -86.94408046 240.53908638 -86.5625 242.6875 C-83.70613394 256.22777372 -75.18980619 266.91661555 -63.703125 274.4921875 C-53.10223272 280.80224243 -42.74408387 285.2772332 -30.75 288.25 C-29.64785156 288.59289062 -28.54570312 288.93578125 -27.41015625 289.2890625 C-10.04104775 293.84914862 12.07045343 293.19581284 29.25 288.25 C30.47275635 287.90340332 30.47275635 287.90340332 31.72021484 287.54980469 C48.74195869 282.59383093 66.96829231 275.67256153 77.25 260.25 C77.58666218 257.9452331 77.58666218 257.9452331 77.58813477 255.35473633 C77.61057755 254.3597261 77.63302032 253.36471588 77.65614319 252.33955383 C77.66778 251.26457138 77.67941681 250.18958893 77.69140625 249.08203125 C77.70517807 247.97325119 77.71894989 246.86447113 77.73313904 245.72209167 C77.75642975 243.37263997 77.7736856 241.02312192 77.78540039 238.67358398 C77.81227114 235.09299643 77.88715421 231.51538743 77.96289062 227.93554688 C77.97955298 225.65106152 77.99331766 223.36655283 78.00390625 221.08203125 C78.04868858 219.4847393 78.04868858 219.4847393 78.09437561 217.85517883 C78.05474215 211.09583891 76.83105201 207.60224868 72.00308228 202.80451965 C71.42456512 202.29152817 70.84604797 201.77853668 70.25 201.25 C69.41082031 200.50492188 68.57164062 199.75984375 67.70703125 198.9921875 C57.3106631 191.65176804 45.78583796 186.35632108 34.38450623 180.78295898 C29.2868895 178.28470777 24.25883923 175.6707004 19.25 173 C17.7698496 172.21814702 16.28938264 171.43689303 14.80859375 170.65625 C12.39473229 169.38361244 9.982863 168.10763095 7.57470703 166.82421875 C4.8286826 165.36685028 2.07204207 163.93157471 -0.6875 162.5 C-1.53505859 162.04463867 -2.38261719 161.58927734 -3.25585938 161.12011719 C-4.04669922 160.71438477 -4.83753906 160.30865234 -5.65234375 159.890625 C-6.34835693 159.52485352 -7.04437012 159.15908203 -7.76147461 158.78222656 C-9.75272334 158.0422139 -9.75272334 158.0422139 -11.63110352 158.95996094 C-12.67995728 159.59853027 -12.67995728 159.59853027 -13.75 160.25 C-19.06683432 163.45311861 -23.27427297 163.70399411 -29.3125 163.68359375 C-30.22201416 163.6888356 -31.13152832 163.69407745 -32.06860352 163.69947815 C-33.98485293 163.70588003 -35.90114174 163.70458518 -37.81738281 163.69604492 C-40.74094842 163.68752637 -43.66256418 163.71633521 -46.5859375 163.74804688 C-48.45312442 163.74965894 -50.32031478 163.74908126 -52.1875 163.74609375 C-53.05640869 163.75732773 -53.92531738 163.76856171 -54.82055664 163.78013611 C-61.11873688 163.70817611 -64.8222675 162.15686979 -69.39453125 157.6171875 C-72.89188302 153.14899895 -73.8626528 151.2775354 -73.71484375 145.6484375 C-73.71162109 144.51792969 -73.70839844 143.38742188 -73.70507812 142.22265625 C-73.69347177 139.84722207 -73.64726773 137.47167479 -73.56445312 135.09765625 C-73.57341884 128.40991791 -73.57341884 128.40991791 -76.84960938 122.81005859 C-79.39989577 120.78592352 -82.00988727 119.00550398 -84.75 117.25 C-95.63447255 108.32223459 -105.42583245 95.08961579 -107.03222656 80.7265625 C-107.15055737 78.08152102 -107.15985806 75.45977617 -107.125 72.8125 C-107.13660156 71.93529297 -107.14820313 71.05808594 -107.16015625 70.15429688 C-107.0913201 54.58585372 -99.25445333 42.27813575 -88.75 31.25 C-65.09171692 9.20512437 -31.74065097 -0.23868245 0 0 Z " fill="#898989" transform="translate(262.75,101.75)"/>
<path d="M0 0 C21.12 0 42.24 0 64 0 C64 2.31 64 4.62 64 7 C53.11 7 42.22 7 31 7 C31 11.29 31 15.58 31 20 C30.67 21.32 30.34 22.64 30 24 C38.91 24 47.82 24 57 24 C57 26.31 57 28.62 57 31 C47.1 31 37.2 31 27 31 C26.01 33.97 25.02 36.94 24 40 C22.02 42.64 20.04 45.28 18 48 C33.18 48.33 48.36 48.66 64 49 C64 51.31 64 53.62 64 56 C63.35235184 55.99032196 62.70470367 55.98064392 62.03742981 55.97067261 C55.23864348 55.87906712 48.4421784 55.85869159 41.64282227 55.87792969 C39.11247165 55.87599431 36.58206633 55.85646721 34.05200195 55.81835938 C15.04683251 55.20936886 15.04683251 55.20936886 -0.59643555 64.54541016 C-1.38961182 65.3554248 -2.18278809 66.16543945 -3 67 C-5.5024934 68.67202115 -8.08478941 69.98740456 -10.8125 71.25 C-11.47717285 71.56807617 -12.1418457 71.88615234 -12.82666016 72.21386719 C-25.85211439 78.32366623 -38.87547993 82.32426804 -53 85 C-54.11246094 85.226875 -55.22492188 85.45375 -56.37109375 85.6875 C-90.92965087 91.77860432 -128.6096765 83.98042473 -158 65 C-170.35069194 56.23300821 -182.67521649 44.29400416 -186 29 C-182.78590032 25.78590032 -174.29137912 25.86770474 -169.875 25.8125 C-167 26 -167 26 -166 27 C-165.58582845 29.1423694 -165.19408046 31.28908638 -164.8125 33.4375 C-161.95613394 46.97777372 -153.43980619 57.66661555 -141.953125 65.2421875 C-131.35223272 71.55224243 -120.99408387 76.0272332 -109 79 C-107.89785156 79.34289062 -106.79570312 79.68578125 -105.66015625 80.0390625 C-88.29104775 84.59914862 -66.17954657 83.94581284 -49 79 C-48.1848291 78.76893555 -47.3696582 78.53787109 -46.52978516 78.29980469 C-29.50804131 73.34383093 -11.28170769 66.42256153 -1 51 C-0.67256571 48.63769654 -0.67256571 48.63769654 -0.68115234 45.9777832 C-0.66109131 44.9427063 -0.64103027 43.90762939 -0.62036133 42.84118652 C-0.60332153 41.21243591 -0.60332153 41.21243591 -0.5859375 39.55078125 C-0.55947144 38.05146057 -0.55947144 38.05146057 -0.5324707 36.52185059 C-0.46937162 32.78556449 -0.42320711 29.04900791 -0.375 25.3125 C-0.189375 12.7828125 -0.189375 12.7828125 0 0 Z " fill="#FCFCFC" transform="translate(341,311)"/>
<path d="M0 0 C1.3111377 0.00676758 2.62227539 0.01353516 3.97314453 0.02050781 C38.32160772 0.38506018 72.00052357 9.46821127 96.95385742 34.3894043 C102.34229712 40.06944739 108.89575407 48.17474579 109.453125 56.16015625 C109.38609375 56.84980469 109.3190625 57.53945312 109.25 58.25 C97.39594039 60.6508222 97.39594039 60.6508222 91.25 60.25 C89.78922186 58.78922186 89.8176031 57.33379593 89.4375 55.3125 C87.35170259 45.77526689 83.6910651 38.58375002 77.25 31.25 C76.73824219 30.64414063 76.22648438 30.03828125 75.69921875 29.4140625 C61.03742262 13.33338288 35.36147748 5.41902625 14.25 4.25 C9.83294762 4.09207187 5.41968039 4.02634683 1 4 C-0.07660889 3.9906543 -1.15321777 3.98130859 -2.26245117 3.97167969 C-26.0693133 4.06640437 -52.3238351 11.9659178 -70.01171875 28.4453125 C-80.12720674 38.94723486 -84.34942553 50.16940036 -84.09375 64.58203125 C-83.62795236 74.18716671 -78.99287379 82.15932853 -72.75 89.25 C-72.23824219 89.84296875 -71.72648437 90.4359375 -71.19921875 91.046875 C-67.12358259 95.44350398 -62.52398833 98.49741961 -57.3984375 101.57421875 C-54.67885951 103.29501368 -52.22641896 105.19823772 -49.75 107.25 C-50.54664063 107.27578125 -51.34328125 107.3015625 -52.1640625 107.328125 C-60.01664872 107.74845808 -64.32893988 108.82893988 -70 114.5 C-72.25773305 118.04786621 -72.91363115 121.13785315 -73.75 125.25 C-89.12304653 116.55052406 -100.80753979 102.50854138 -106.17431641 85.66845703 C-107.19252252 81.39095501 -107.18263399 77.18948127 -107.125 72.8125 C-107.13660156 71.93529297 -107.14820313 71.05808594 -107.16015625 70.15429688 C-107.0913201 54.58585372 -99.25445333 42.27813575 -88.75 31.25 C-65.09171692 9.20512437 -31.74065097 -0.23868245 0 0 Z " fill="#888888" transform="translate(262.75,101.75)"/>
<path d="M0 0 C44.55 0 89.1 0 135 0 C135 5.28 135 10.56 135 16 C90.45 16 45.9 16 0 16 C0 10.72 0 5.44 0 0 Z " fill="#7E7A7E" transform="translate(255,177)"/>
<path d="M0 0 C1.94100667 -0.02657359 3.88187303 -0.06746229 5.82226562 -0.12304688 C8.62126715 -0.20231571 11.41756873 -0.23533206 14.2175293 -0.25878906 C15.08024948 -0.29178101 15.94296967 -0.32477295 16.83183289 -0.35876465 C20.32929013 -0.34721314 22.75701167 -0.25349248 25.63673401 1.84288025 C29.15438521 5.59737859 30.4895372 8.60557248 30.4284668 13.83886719 C30.42266602 15.00740234 30.41686523 16.1759375 30.41088867 17.37988281 C30.37415039 18.58193359 30.33741211 19.78398437 30.29956055 21.02246094 C30.29762695 22.22837891 30.29569336 23.43429688 30.29370117 24.67675781 C30.20360244 30.7200468 30.12616131 35.25621622 26.73706055 40.45996094 C22.53611881 43.12014099 17.72082967 42.79915597 12.89331055 42.83105469 C12.0465979 42.84008316 11.19988525 42.84911163 10.32751465 42.8584137 C8.54235351 42.87288147 6.75713975 42.88179428 4.97192383 42.88549805 C2.24559434 42.89742361 -0.4784914 42.94666438 -3.2043457 42.99707031 C-4.94261595 43.00653223 -6.68090004 43.01376838 -8.41918945 43.01855469 C-9.63656799 43.04785316 -9.63656799 43.04785316 -10.87854004 43.07774353 C-15.19205476 43.04344207 -16.77152774 42.85600315 -20.25317383 40.05004883 C-24.32142141 34.80708981 -23.5554101 29.65639498 -23.61303711 23.19360352 C-23.62957543 21.83470508 -23.65683866 20.47589289 -23.69506836 19.11743164 C-23.75003552 17.15271408 -23.76860834 15.18708569 -23.78637695 13.22167969 C-23.80619629 12.04565186 -23.82601562 10.86962402 -23.84643555 9.65795898 C-23.09683941 5.54960763 -21.3974361 4.11136637 -18.26293945 1.45996094 C-15.26975348 -1.53322503 -4.24247853 0.04438263 0 0 Z " fill="#8A8A8A" transform="translate(219.262939453125,215.5400390625)"/>
<path d="M0 0 C32.81815869 -0.13780235 65.62244633 0.06842761 98.4375 0.5 C99.34704437 0.51195782 100.25658875 0.52391563 101.19369507 0.53623581 C112.46254773 0.68492945 123.7313005 0.8401422 135 1 C135 5.62 135 10.24 135 15 C90.45 15 45.9 15 0 15 C0 10.05 0 5.1 0 0 Z " fill="#7C7A7E" transform="translate(120,289)"/>
<path d="M0 0 C0.96134857 -0.0127597 1.92269714 -0.02551941 2.91317749 -0.03866577 C3.94552521 -0.04089142 4.97787292 -0.04311707 6.04150391 -0.04541016 C7.10922028 -0.05206696 8.17693665 -0.05872375 9.27700806 -0.06558228 C11.53475218 -0.07570318 13.79252618 -0.08039947 16.05029297 -0.08007812 C19.49838759 -0.08444772 22.94519851 -0.12076486 26.39306641 -0.15869141 C28.58837454 -0.16456041 30.78368874 -0.16852924 32.97900391 -0.17041016 C34.00730316 -0.18478119 35.03560242 -0.19915222 36.09506226 -0.21395874 C42.10140502 -0.17576469 45.57632409 0.27492769 50.14306641 4.29052734 C52.7200875 7.72655546 53.14306641 8.89125603 53.14306641 13.29052734 C49.83056641 13.60302734 49.83056641 13.60302734 46.14306641 13.29052734 C45.78865479 12.47060303 45.43424316 11.65067871 45.0690918 10.8059082 C43.44416995 8.12535283 43.44416995 8.12535283 41.07858276 7.83108521 C38.25421976 7.67664075 35.46733298 7.67703919 32.63916016 7.73193359 C31.08782127 7.73543068 31.08782127 7.73543068 29.50514221 7.73899841 C27.31869256 7.74874383 25.13226848 7.770549 22.94604492 7.8034668 C19.59011691 7.8528867 16.23565355 7.8649465 12.87939453 7.87060547 C10.75763406 7.88469041 8.63588638 7.90089443 6.51416016 7.91943359 C5.50582626 7.9247963 4.49749237 7.930159 3.45860291 7.9356842 C2.0618911 7.9596653 2.0618911 7.9596653 0.63696289 7.98413086 C-0.18449722 7.99477066 -1.00595734 8.00541046 -1.85231018 8.01637268 C-4.08554428 8.11595636 -4.08554428 8.11595636 -5.85693359 10.29052734 C-6.21469525 12.85431664 -6.21469525 12.85431664 -6.16943359 15.72802734 C-6.18619141 16.69611328 -6.20294922 17.66419922 -6.22021484 18.66162109 C-5.79310672 21.75241427 -5.28941124 22.42281453 -2.85693359 24.29052734 C-0.67105018 24.72087997 -0.67105018 24.72087997 1.77880859 24.62768555 C2.71698425 24.62811356 3.65515991 24.62854156 4.62176514 24.62898254 C6.14051239 24.61033394 6.14051239 24.61033394 7.68994141 24.59130859 C9.83577781 24.59895294 11.98161134 24.60744322 14.12744141 24.61669922 C17.50917951 24.61449118 20.89034297 24.60304958 24.27197266 24.57543945 C27.53688582 24.55467575 30.80006259 24.57078196 34.06494141 24.59130859 C35.06934265 24.5728035 36.0737439 24.5542984 37.10858154 24.53523254 C43.19393005 24.59849671 46.51087002 25.50238159 50.90362549 29.80729675 C54.66600955 34.3097164 53.50690511 40.75883157 53.14306641 46.29052734 C51.77008589 50.63829897 49.96133813 52.97801834 46.11083984 55.44796753 C41.91713659 57.24362437 37.31966493 56.87826261 32.83056641 56.85693359 C31.19994263 56.86623146 31.19994263 56.86623146 29.53637695 56.87571716 C27.24349867 56.88280474 24.95056881 56.87965997 22.65771484 56.86694336 C19.15447146 56.8530725 15.65389715 56.88717391 12.15087891 56.92529297 C9.91910742 56.92624417 7.6873326 56.92438531 5.45556641 56.91943359 C3.88971802 56.93932091 3.88971802 56.93932091 2.29223633 56.95960999 C-5.81133038 56.85610304 -5.81133038 56.85610304 -9.47802734 53.88012695 C-12.99159934 50.05536729 -13.85693359 48.52851828 -13.85693359 43.29052734 C-10.54443359 42.97802734 -10.54443359 42.97802734 -6.85693359 43.29052734 C-6.50252197 44.11045166 -6.14811035 44.93037598 -5.78295898 45.77514648 C-4.15803714 48.45570185 -4.15803714 48.45570185 -1.79244995 48.74996948 C1.03191305 48.90441394 3.81879983 48.9040155 6.64697266 48.84912109 C8.19831154 48.84562401 8.19831154 48.84562401 9.7809906 48.84205627 C11.96744025 48.83231085 14.15386433 48.81050569 16.34008789 48.77758789 C19.6960159 48.72816799 23.05047926 48.71610818 26.40673828 48.71044922 C28.52849875 48.69636428 30.65024643 48.68016026 32.77197266 48.66162109 C33.78030655 48.65625839 34.78864044 48.65089569 35.82752991 48.64537048 C36.75867111 48.62938309 37.68981232 48.61339569 38.64916992 48.59692383 C39.47063004 48.58628403 40.29209015 48.57564423 41.13844299 48.56468201 C43.3716771 48.46509833 43.3716771 48.46509833 45.14306641 46.29052734 C45.38666714 43.1623822 45.38666714 43.1623822 45.26806641 39.66552734 C45.25001953 38.47701172 45.23197266 37.28849609 45.21337891 36.06396484 C45.19017578 35.14873047 45.16697266 34.23349609 45.14306641 33.29052734 C42.24054812 32.32302125 40.40151102 32.16619791 37.38378906 32.16455078 C36.41913727 32.16074402 35.45448547 32.15693726 34.46060181 32.15301514 C33.41995575 32.15198792 32.37930969 32.15096069 31.30712891 32.14990234 C29.10659769 32.13157785 26.90607656 32.11200788 24.70556641 32.09130859 C21.23371332 32.06231095 17.76250952 32.04052656 14.29052734 32.04003906 C10.94130742 32.03670793 7.59358857 32.00218002 4.24462891 31.96240234 C3.20803131 31.96947205 2.17143372 31.97654175 1.10342407 31.98382568 C-6.12345293 31.86164497 -6.12345293 31.86164497 -9.97045898 28.86621094 C-14.74048628 22.35349087 -14.77390778 16.27468643 -13.85693359 8.29052734 C-11.21658789 2.42075482 -6.16102565 0.05568366 0 0 Z " fill="#FAFAFA" transform="translate(257.85693359375,310.70947265625)"/>
<path d="M0 0 C1.84622845 1.84622845 1.74629905 4.95340497 2.1875 7.4375 C5.04386606 20.97777372 13.56019381 31.66661555 25.046875 39.2421875 C35.64776728 45.55224243 46.00591613 50.0272332 58 53 C59.10214844 53.34289062 60.20429688 53.68578125 61.33984375 54.0390625 C78.70895225 58.59914862 100.82045343 57.94581284 118 53 C118.8151709 52.76893555 119.6303418 52.53787109 120.47021484 52.29980469 C137.60618449 47.31057346 151.27183952 40.68310504 164 28 C164.59425781 27.40832031 165.18851563 26.81664062 165.80078125 26.20703125 C166.19652344 25.80871094 166.59226562 25.41039062 167 25 C167 26.65 167 28.3 167 30 C170.3 30 173.6 30 177 30 C157.84164547 51.07418998 124.04681996 59.61035965 96.69628906 61.19091797 C62.81837587 62.39406814 26.74862242 55.04779506 0.4609375 32.3125 C-8.30574237 24.07460399 -16.3841273 15.03301442 -19 3 C-15.24235191 -0.75764809 -5.10592923 -0.33299538 0 0 Z " fill="#848484" transform="translate(174,337)"/>
<path d="M0 0 C1.37276093 -0.00855011 1.37276093 -0.00855011 2.77325439 -0.01727295 C4.71340781 -0.02673026 6.65357735 -0.03325983 8.59375 -0.03710938 C11.55237188 -0.04679073 14.51029197 -0.07779706 17.46875 -0.109375 C19.35416254 -0.11590752 21.23958006 -0.12115701 23.125 -0.125 C24.00645691 -0.1373468 24.88791382 -0.1496936 25.79608154 -0.16241455 C31.76718338 -0.14092695 36.17359538 0.70441683 40.69140625 4.95703125 C41.16964844 5.55386719 41.64789063 6.15070313 42.140625 6.765625 C42.87732422 7.66474609 42.87732422 7.66474609 43.62890625 8.58203125 C47.16737992 13.36530999 46.05288343 19.5545512 46.06835938 25.26904297 C46.07802635 27.4310612 46.10902994 29.59211276 46.140625 31.75390625 C46.1471593 33.13801521 46.15240809 34.52213095 46.15625 35.90625 C46.1655957 37.16083008 46.17494141 38.41541016 46.18457031 39.70800781 C45.7144462 44.31780011 44.25323777 47.6581732 41.109375 51.06640625 C40.5215625 51.54464844 39.93375 52.02289063 39.328125 52.515625 C38.44640625 53.25232422 38.44640625 53.25232422 37.546875 54.00390625 C34.6791135 56.00482166 32.11930479 56.33383751 28.72729492 56.38012695 C27.90601608 56.39296219 27.08473724 56.40579742 26.23857117 56.41902161 C24.91198235 56.43010201 24.91198235 56.43010201 23.55859375 56.44140625 C22.64483475 56.449478 21.73107574 56.45754974 20.78962708 56.46586609 C18.85545747 56.47969507 16.92126358 56.49042253 14.98706055 56.49829102 C12.03712457 56.51549958 9.08831079 56.55939551 6.13867188 56.60351562 C4.25782073 56.6136434 2.37696007 56.62215924 0.49609375 56.62890625 C-0.3822261 56.64641434 -1.26054596 56.66392242 -2.16548157 56.68196106 C-8.51628578 56.65959568 -12.20392314 55.14992756 -16.81640625 50.5703125 C-21.91130185 44.06111478 -21.4242584 38.70419736 -21.46704102 30.70996094 C-21.48420483 28.47528031 -21.52808343 26.24209879 -21.57226562 24.0078125 C-21.58239743 22.57813585 -21.59091201 21.14844664 -21.59765625 19.71875 C-21.61953003 17.77403809 -21.61953003 17.77403809 -21.6418457 15.79003906 C-20.94305597 10.45673061 -18.24605299 6.67741615 -14.046875 3.390625 C-9.34297783 -0.18842719 -5.74582025 0.02745088 0 0 Z M-13.171875 12.203125 C-13.501875 12.533125 -13.831875 12.863125 -14.171875 13.203125 C-14.41451892 17.26336652 -14.40042011 21.32715295 -14.41210938 25.39404297 C-14.42177048 27.4310865 -14.45275834 29.46710173 -14.484375 31.50390625 C-14.48953125 32.79167969 -14.4946875 34.07945312 -14.5 35.40625 C-14.5093457 36.58864258 -14.51869141 37.77103516 -14.52832031 38.98925781 C-14.13404794 42.54419032 -13.31838216 44.37003734 -11.171875 47.203125 C-7.28649134 49.79338077 -4.02880419 49.49094202 0.4765625 49.46875 C1.32610504 49.47066345 2.17564758 49.4725769 3.05093384 49.47454834 C4.84808651 49.47590915 6.64524904 49.47221997 8.44238281 49.46386719 C11.18577338 49.45319252 13.92850517 49.46375222 16.671875 49.4765625 C18.41927227 49.47524037 20.16666914 49.47267687 21.9140625 49.46875 C22.7319223 49.47279846 23.5497821 49.47684692 24.39242554 49.48101807 C30.38707833 49.47332103 30.38707833 49.47332103 35.828125 47.203125 C39.84389737 41.03716663 39.37920938 34.88516364 39.390625 27.765625 C39.42736328 26.56357422 39.46410156 25.36152344 39.50195312 24.12304688 C39.50775391 22.95451172 39.51355469 21.78597656 39.51953125 20.58203125 C39.53185791 19.5257251 39.54418457 18.46941895 39.55688477 17.38110352 C38.520303 12.86077358 36.57599884 9.96201481 32.828125 7.203125 C29.67878362 6.24647449 26.72222328 6.26504544 23.44921875 6.34375 C22.55952896 6.34179626 21.66983917 6.33984253 20.75318909 6.33782959 C18.87969978 6.34181589 17.00617708 6.36300235 15.13305664 6.40039062 C12.26995433 6.45304538 9.41225033 6.44153967 6.54882812 6.421875 C4.72392968 6.43368813 2.89905059 6.4491883 1.07421875 6.46875 C0.22202255 6.46490295 -0.63017365 6.46105591 -1.50819397 6.45709229 C-7.11051662 6.6124551 -9.54537609 7.60453344 -13.171875 12.203125 Z " fill="#FAFAFA" transform="translate(210.171875,208.796875)"/>
<path d="M0 0 C0.9104306 -0.00807175 1.82086121 -0.01614349 2.75888062 -0.02445984 C4.69063408 -0.03830779 6.6224121 -0.04902676 8.55419922 -0.05688477 C11.49104206 -0.07402963 14.42673914 -0.11790071 17.36328125 -0.16210938 C19.24217924 -0.17224245 21.12108679 -0.18075662 23 -0.1875 C23.87113434 -0.20500809 24.74226868 -0.22251617 25.63980103 -0.24055481 C31.55367436 -0.219805 35.9384521 0.94674399 40.8984375 4.23828125 C43.95245533 7.43863744 45.75212331 10.83366503 46.2109375 15.23828125 C46.1078125 15.89828125 46.0046875 16.55828125 45.8984375 17.23828125 C43.5884375 17.23828125 41.2784375 17.23828125 38.8984375 17.23828125 C38.24739583 15.48046875 37.59635417 13.72265625 36.9453125 11.96484375 C35.50349092 9.58691413 34.53618189 9.20897534 31.8984375 8.23828125 C28.95105297 8.02176248 26.10051567 7.91037756 23.15234375 7.90234375 C22.30421616 7.89568695 21.45608856 7.88903015 20.58226013 7.88217163 C18.79110885 7.87206103 16.99992002 7.86735412 15.20874023 7.86767578 C12.47381368 7.86330184 9.74050063 7.82696501 7.00585938 7.7890625 C5.26302634 7.78319407 3.52018565 7.77922485 1.77734375 7.77734375 C0.962621 7.76297272 0.14789825 7.74860168 -0.69151306 7.73379517 C-4.69042929 7.76585471 -6.63587048 7.94200432 -10.09399414 10.14208984 C-14.68600595 14.93681359 -13.32558144 21.26011634 -13.3515625 27.55078125 C-13.3721875 28.78763672 -13.3928125 30.02449219 -13.4140625 31.29882812 C-13.41921875 32.49185547 -13.424375 33.68488281 -13.4296875 34.9140625 C-13.4390332 36.00630127 -13.44837891 37.09854004 -13.45800781 38.22387695 C-13.05200618 41.65737158 -12.16083369 43.48384016 -10.1015625 46.23828125 C-6.20845401 48.83368691 -2.9326412 48.52605955 1.58203125 48.50390625 C2.43394547 48.5058197 3.28585968 48.50773315 4.16358948 48.50970459 C5.96493831 48.51106526 7.76629698 48.50737706 9.56762695 48.49902344 C12.32200223 48.48833532 15.07572333 48.49891581 17.83007812 48.51171875 C19.5807306 48.51039688 21.33138268 48.5078339 23.08203125 48.50390625 C23.90505234 48.50795471 24.72807343 48.51200317 25.57603455 48.51617432 C31.06163595 48.52158391 31.06163595 48.52158391 35.8984375 46.23828125 C37.00337085 44.53877697 37.00337085 44.53877697 37.6484375 42.61328125 C38.0609375 41.49953125 38.4734375 40.38578125 38.8984375 39.23828125 C41.2084375 39.23828125 43.5184375 39.23828125 45.8984375 39.23828125 C45.46329931 44.67750868 44.49940471 48.08331909 40.8984375 52.23828125 C35.20122648 56.15529218 29.91166243 56.83338573 23.140625 56.76953125 C21.7805986 56.77527161 21.7805986 56.77527161 20.39309692 56.78112793 C18.48877849 56.7838343 16.58442206 56.77656305 14.68017578 56.75976562 C11.77422092 56.73828704 8.87072395 56.75963594 5.96484375 56.78515625 C4.10676541 56.78251372 2.2486886 56.77739029 0.390625 56.76953125 C-0.47200958 56.77762817 -1.33464417 56.7857251 -2.22341919 56.79406738 C-7.66697497 56.70980994 -10.77638836 55.84300756 -15.1015625 52.23828125 C-21.45713016 45.1765394 -21.44688822 39.74624625 -21.41723633 30.44873047 C-21.41408298 28.37674012 -21.43752852 26.30618834 -21.46289062 24.234375 C-21.46353516 22.91824219 -21.46417969 21.60210937 -21.46484375 20.24609375 C-21.46782471 19.0461377 -21.47080566 17.84618164 -21.47387695 16.60986328 C-20.87545728 11.19073166 -18.7746367 7.31972947 -14.5390625 3.92578125 C-13.93964844 3.43464844 -13.34023438 2.94351563 -12.72265625 2.4375 C-8.78678839 -0.47409382 -4.70875426 0.03937965 0 0 Z " fill="#F8F8F8" transform="translate(35.1015625,208.76171875)"/>
<path d="M0 0 C20.79 0 41.58 0 63 0 C63 2.31 63 4.62 63 7 C53.76 7 44.52 7 35 7 C35 23.17 35 39.34 35 56 C32.69 56 30.38 56 28 56 C28 39.83 28 23.66 28 7 C18.76 7 9.52 7 0 7 C0 4.69 0 2.38 0 0 Z " fill="#FBFBFB" transform="translate(428,311)"/>
<path d="M0 0 C2.31 0 4.62 0 7 0 C7 16.17 7 32.34 7 49 C21.85 49 36.7 49 52 49 C52 51.31 52 53.62 52 56 C34.84 56 17.68 56 0 56 C0 37.52 0 19.04 0 0 Z " fill="#F5F5F5" transform="translate(112,209)"/>
<path d="M0 0 C4.75807983 1.43888368 9.06513931 3.43717856 13.453125 5.73828125 C14.15338806 6.10092575 14.85365112 6.46357025 15.57513428 6.83720398 C17.80223392 7.99155991 20.02619893 9.15180435 22.25 10.3125 C24.45506445 11.45856278 26.66076714 12.60338931 28.86657715 13.74801636 C30.28749125 14.48541064 31.70815007 15.22329706 33.12854004 15.96170044 C38.39231438 18.69526027 43.68028564 21.37670164 49 24 C48.67 24.66 48.34 25.32 48 26 C41.89312924 28.03562359 34.79636836 27.3076963 28.38574219 27.35009766 C26.54869935 27.36666808 24.71172128 27.39397259 22.875 27.43212891 C20.22101542 27.4869436 17.56853713 27.50877536 14.9140625 27.5234375 C13.6872728 27.55744156 13.6872728 27.55744156 12.43569946 27.59213257 C8.10076215 27.57610305 6.50648344 27.4072183 3.00537109 24.59228516 C0.37045229 21.1862019 -0.12434956 19.64723053 -0.09765625 15.4296875 C-0.09443359 14.53378906 -0.09121094 13.63789063 -0.08789062 12.71484375 C-0.07951172 11.77769531 -0.07113281 10.84054688 -0.0625 9.875 C-0.05798828 8.93011719 -0.05347656 7.98523438 -0.04882812 7.01171875 C-0.03702357 4.67441613 -0.02055759 2.33723939 0 0 Z " fill="#020202" transform="translate(196,231)"/>
<path d="M0 0 C7.92 0 15.84 0 24 0 C24.125 12.5 24.125 12.5 23 17 C31.91 17 40.82 17 50 17 C50 17.33 50 17.66 50 18 C33.5 18 17 18 0 18 C0 12.06 0 6.12 0 0 Z " fill="#878787" transform="translate(348,318)"/>
<path d="M0 0 C6.6 0.33 13.2 0.66 20 1 C15.21672751 13.7553933 15.21672751 13.7553933 10 18 C6.35002485 18.7714962 3.77005726 18.46480158 0 18 C0 12.06 0 6.12 0 0 Z " fill="#888888" transform="translate(348,342)"/>
<path d="M0 0 C12.33962999 -1.06492697 12.33962999 -1.06492697 16.265625 1.453125 C18.82202528 4.406636 20 6.02522728 20 10 C15.26210835 8.55676531 11.01141849 6.62773267 6.625 4.375 C5.66400391 3.88773438 5.66400391 3.88773438 4.68359375 3.390625 C3.12052499 2.59742593 1.55999378 1.79922969 0 1 C0 0.67 0 0.34 0 0 Z " fill="#0A0A0A" transform="translate(229,216)"/>
</svg>
