<?xml version="1.0" encoding="UTF-8"?>
<svg xmlns="http://www.w3.org/2000/svg" xmlns:xlink="http://www.w3.org/1999/xlink" width="48px" height="48px" viewBox="0 0 48 48" version="1.1">
<g id="surface1">
<path style=" stroke:none;fill-rule:nonzero;fill:rgb(0%,0%,0%);fill-opacity:1;" d="M 0 0 C 15.839844 0 31.679688 0 48 0 C 48 15.839844 48 31.679688 48 48 C 32.160156 48 16.320312 48 0 48 C 0 32.160156 0 16.320312 0 0 Z M 0 0 "/>
<path style=" stroke:none;fill-rule:nonzero;fill:rgb(53.72549%,53.72549%,53.72549%);fill-opacity:1;" d="M 25.222656 9.769531 C 25.351562 9.769531 25.476562 9.769531 25.605469 9.769531 C 28.902344 9.804688 32.136719 10.675781 34.53125 13.070312 C 35.050781 13.613281 35.679688 14.394531 35.730469 15.160156 C 35.726562 15.226562 35.71875 15.292969 35.710938 15.359375 C 34.574219 15.589844 34.574219 15.589844 33.984375 15.550781 C 33.84375 15.410156 33.847656 15.273438 33.808594 15.078125 C 33.609375 14.164062 33.257812 13.472656 32.640625 12.769531 C 32.589844 12.710938 32.542969 12.652344 32.492188 12.589844 C 31.082031 11.046875 28.617188 10.289062 26.59375 10.175781 C 26.167969 10.160156 25.746094 10.15625 25.320312 10.152344 C 25.214844 10.152344 25.113281 10.148438 25.007812 10.148438 C 22.722656 10.160156 20.199219 10.917969 18.503906 12.5 C 17.53125 13.507812 17.125 14.585938 17.152344 15.96875 C 17.195312 16.890625 17.640625 17.65625 18.238281 18.335938 C 18.289062 18.394531 18.339844 18.449219 18.390625 18.507812 C 18.847656 19.003906 19.390625 19.335938 19.96875 19.679688 C 20.039062 19.730469 20.109375 19.78125 20.183594 19.832031 C 20.507812 20 20.738281 20.003906 21.105469 20.007812 C 21.292969 20.011719 21.292969 20.011719 21.484375 20.011719 C 21.617188 20.015625 21.75 20.015625 21.882812 20.015625 C 22.140625 20.015625 22.398438 20.019531 22.660156 20.023438 C 22.773438 20.027344 22.886719 20.027344 23.003906 20.027344 C 23.523438 20.085938 23.898438 20.289062 24.222656 20.695312 C 24.292969 20.78125 24.292969 20.78125 24.363281 20.867188 C 24.503906 21.058594 24.578125 21.160156 24.5625 21.398438 C 24.550781 21.664062 24.570312 21.832031 24.671875 22.078125 C 25.046875 22.375 25.472656 22.554688 25.90625 22.746094 C 26.03125 22.804688 26.15625 22.863281 26.28125 22.921875 C 26.527344 23.039062 26.777344 23.152344 27.023438 23.265625 C 27.445312 23.464844 27.851562 23.675781 28.261719 23.898438 C 28.800781 24.1875 29.34375 24.464844 29.890625 24.734375 C 30.019531 24.796875 30.148438 24.859375 30.277344 24.921875 C 30.523438 25.042969 30.773438 25.164062 31.023438 25.285156 C 32.128906 25.824219 33.160156 26.460938 34.027344 27.347656 C 34.082031 27.40625 34.136719 27.460938 34.195312 27.519531 C 34.835938 28.1875 35.160156 28.914062 35.519531 29.761719 C 36.628906 29.792969 37.738281 29.824219 38.878906 29.855469 C 38.878906 30.078125 38.878906 30.300781 38.878906 30.527344 C 37.835938 30.527344 36.789062 30.527344 35.710938 30.527344 C 35.710938 30.941406 35.710938 31.351562 35.710938 31.777344 C 35.679688 31.902344 35.648438 32.03125 35.617188 32.160156 C 36.472656 32.160156 37.328125 32.160156 38.207031 32.160156 C 38.207031 32.382812 38.207031 32.605469 38.207031 32.832031 C 37.257812 32.832031 36.308594 32.832031 35.328125 32.832031 C 35.234375 33.117188 35.136719 33.402344 35.039062 33.695312 C 34.851562 33.949219 34.660156 34.203125 34.464844 34.464844 C 35.921875 34.496094 37.378906 34.527344 38.878906 34.558594 C 38.878906 34.78125 38.878906 35.003906 38.878906 35.230469 C 38.816406 35.230469 38.753906 35.230469 38.691406 35.230469 C 38.039062 35.21875 37.386719 35.21875 36.734375 35.21875 C 36.492188 35.21875 36.246094 35.21875 36.003906 35.214844 C 34.179688 35.15625 34.179688 35.15625 32.679688 36.050781 C 32.601562 36.128906 32.527344 36.207031 32.449219 36.289062 C 32.207031 36.449219 31.960938 36.574219 31.699219 36.695312 C 31.632812 36.726562 31.570312 36.757812 31.503906 36.789062 C 30.253906 37.375 29.003906 37.757812 27.648438 38.015625 C 27.542969 38.039062 27.433594 38.058594 27.324219 38.082031 C 24.007812 38.667969 20.390625 37.917969 17.566406 36.097656 C 16.382812 35.253906 15.199219 34.109375 14.878906 32.640625 C 15.1875 32.332031 16.003906 32.339844 16.429688 32.335938 C 16.703125 32.351562 16.703125 32.351562 16.800781 32.449219 C 16.839844 32.652344 16.878906 32.859375 16.914062 33.066406 C 17.1875 34.367188 18.003906 35.390625 19.109375 36.121094 C 20.125 36.726562 21.121094 37.15625 22.273438 37.441406 C 22.378906 37.472656 22.484375 37.503906 22.59375 37.539062 C 24.261719 37.976562 26.382812 37.914062 28.03125 37.441406 C 28.148438 37.40625 28.148438 37.40625 28.269531 37.371094 C 29.902344 36.898438 31.652344 36.234375 32.640625 34.753906 C 32.671875 34.53125 32.671875 34.53125 32.671875 34.28125 C 32.675781 34.1875 32.675781 34.089844 32.679688 33.992188 C 32.679688 33.890625 32.679688 33.785156 32.683594 33.679688 C 32.683594 33.574219 32.683594 33.46875 32.6875 33.355469 C 32.6875 33.132812 32.691406 32.90625 32.691406 32.679688 C 32.695312 32.335938 32.699219 31.992188 32.707031 31.648438 C 32.710938 31.429688 32.710938 31.210938 32.710938 30.992188 C 32.714844 30.839844 32.714844 30.839844 32.722656 30.683594 C 32.71875 30.03125 32.601562 29.699219 32.136719 29.238281 C 32.082031 29.1875 32.023438 29.140625 31.96875 29.089844 C 31.886719 29.015625 31.808594 28.945312 31.722656 28.871094 C 30.726562 28.167969 29.621094 27.660156 28.523438 27.125 C 28.035156 26.882812 27.554688 26.632812 27.070312 26.375 C 26.929688 26.300781 26.789062 26.226562 26.644531 26.152344 C 26.414062 26.027344 26.183594 25.90625 25.949219 25.78125 C 25.6875 25.644531 25.421875 25.503906 25.15625 25.367188 C 25.078125 25.324219 24.996094 25.28125 24.910156 25.234375 C 24.835938 25.195312 24.757812 25.15625 24.679688 25.117188 C 24.613281 25.082031 24.546875 25.046875 24.480469 25.011719 C 24.289062 24.941406 24.289062 24.941406 24.105469 25.027344 C 24.007812 25.089844 24.007812 25.089844 23.902344 25.152344 C 23.394531 25.460938 22.988281 25.484375 22.410156 25.480469 C 22.324219 25.480469 22.234375 25.484375 22.144531 25.484375 C 21.960938 25.484375 21.777344 25.484375 21.59375 25.484375 C 21.3125 25.480469 21.03125 25.484375 20.75 25.488281 C 20.574219 25.488281 20.394531 25.488281 20.214844 25.488281 C 20.128906 25.488281 20.046875 25.488281 19.960938 25.492188 C 19.355469 25.484375 19 25.335938 18.5625 24.898438 C 18.226562 24.46875 18.132812 24.289062 18.148438 23.75 C 18.148438 23.640625 18.148438 23.53125 18.148438 23.421875 C 18.148438 23.191406 18.152344 22.964844 18.160156 22.738281 C 18.160156 22.09375 18.160156 22.09375 17.847656 21.558594 C 17.601562 21.363281 17.351562 21.191406 17.089844 21.023438 C 16.042969 20.167969 15.101562 18.898438 14.949219 17.519531 C 14.9375 17.265625 14.9375 17.011719 14.941406 16.757812 C 14.9375 16.671875 14.9375 16.589844 14.9375 16.503906 C 14.941406 15.007812 15.695312 13.828125 16.703125 12.769531 C 18.976562 10.652344 22.175781 9.746094 25.222656 9.769531 Z M 25.222656 9.769531 "/>
<path style=" stroke:none;fill-rule:nonzero;fill:rgb(98.823529%,98.823529%,98.823529%);fill-opacity:1;" d="M 32.734375 29.855469 C 34.761719 29.855469 36.792969 29.855469 38.878906 29.855469 C 38.878906 30.078125 38.878906 30.300781 38.878906 30.527344 C 37.835938 30.527344 36.789062 30.527344 35.710938 30.527344 C 35.710938 30.941406 35.710938 31.351562 35.710938 31.777344 C 35.679688 31.902344 35.648438 32.03125 35.617188 32.160156 C 36.472656 32.160156 37.328125 32.160156 38.207031 32.160156 C 38.207031 32.382812 38.207031 32.605469 38.207031 32.832031 C 37.257812 32.832031 36.308594 32.832031 35.328125 32.832031 C 35.234375 33.117188 35.136719 33.402344 35.039062 33.695312 C 34.851562 33.949219 34.660156 34.203125 34.464844 34.464844 C 35.921875 34.496094 37.378906 34.527344 38.878906 34.558594 C 38.878906 34.78125 38.878906 35.003906 38.878906 35.230469 C 38.816406 35.230469 38.753906 35.230469 38.691406 35.230469 C 38.039062 35.21875 37.386719 35.21875 36.734375 35.21875 C 36.492188 35.21875 36.246094 35.21875 36.003906 35.214844 C 34.179688 35.15625 34.179688 35.15625 32.679688 36.050781 C 32.601562 36.128906 32.527344 36.207031 32.449219 36.289062 C 32.207031 36.449219 31.960938 36.574219 31.699219 36.695312 C 31.632812 36.726562 31.570312 36.757812 31.503906 36.789062 C 30.253906 37.375 29.003906 37.757812 27.648438 38.015625 C 27.542969 38.039062 27.433594 38.058594 27.324219 38.082031 C 24.007812 38.667969 20.390625 37.917969 17.566406 36.097656 C 16.382812 35.253906 15.199219 34.109375 14.878906 32.640625 C 15.1875 32.332031 16.003906 32.339844 16.429688 32.335938 C 16.703125 32.351562 16.703125 32.351562 16.800781 32.449219 C 16.839844 32.652344 16.878906 32.859375 16.914062 33.066406 C 17.1875 34.367188 18.003906 35.390625 19.109375 36.121094 C 20.125 36.726562 21.121094 37.15625 22.273438 37.441406 C 22.378906 37.472656 22.484375 37.503906 22.59375 37.539062 C 24.261719 37.976562 26.382812 37.914062 28.03125 37.441406 C 28.109375 37.417969 28.1875 37.394531 28.269531 37.371094 C 29.902344 36.898438 31.652344 36.234375 32.640625 34.753906 C 32.671875 34.523438 32.671875 34.523438 32.671875 34.269531 C 32.671875 34.171875 32.675781 34.070312 32.675781 33.96875 C 32.679688 33.8125 32.679688 33.8125 32.679688 33.652344 C 32.683594 33.507812 32.683594 33.507812 32.683594 33.363281 C 32.691406 33.003906 32.695312 32.644531 32.699219 32.285156 C 32.71875 31.082031 32.71875 31.082031 32.734375 29.855469 Z M 32.734375 29.855469 "/>
<path style=" stroke:none;fill-rule:nonzero;fill:rgb(53.333333%,53.333333%,53.333333%);fill-opacity:1;" d="M 25.222656 9.769531 C 25.351562 9.769531 25.476562 9.769531 25.605469 9.769531 C 28.902344 9.804688 32.136719 10.675781 34.53125 13.070312 C 35.050781 13.613281 35.679688 14.394531 35.730469 15.160156 C 35.726562 15.226562 35.71875 15.292969 35.710938 15.359375 C 34.574219 15.589844 34.574219 15.589844 33.984375 15.550781 C 33.84375 15.410156 33.847656 15.273438 33.808594 15.078125 C 33.609375 14.164062 33.257812 13.472656 32.640625 12.769531 C 32.589844 12.710938 32.542969 12.652344 32.492188 12.589844 C 31.082031 11.046875 28.617188 10.289062 26.59375 10.175781 C 26.167969 10.160156 25.746094 10.15625 25.320312 10.152344 C 25.214844 10.152344 25.113281 10.148438 25.007812 10.148438 C 22.722656 10.160156 20.199219 10.917969 18.503906 12.5 C 17.53125 13.507812 17.125 14.585938 17.152344 15.96875 C 17.195312 16.890625 17.640625 17.65625 18.238281 18.335938 C 18.289062 18.394531 18.339844 18.449219 18.390625 18.507812 C 18.78125 18.929688 19.222656 19.222656 19.714844 19.519531 C 19.976562 19.683594 20.210938 19.867188 20.449219 20.0625 C 20.371094 20.066406 20.296875 20.070312 20.214844 20.070312 C 19.460938 20.113281 19.046875 20.214844 18.503906 20.761719 C 18.289062 21.101562 18.222656 21.398438 18.144531 21.792969 C 16.667969 20.957031 15.546875 19.609375 15.03125 17.992188 C 14.933594 17.582031 14.933594 17.179688 14.941406 16.757812 C 14.9375 16.671875 14.9375 16.589844 14.9375 16.503906 C 14.941406 15.007812 15.695312 13.828125 16.703125 12.769531 C 18.976562 10.652344 22.175781 9.746094 25.222656 9.769531 Z M 25.222656 9.769531 "/>
<path style=" stroke:none;fill-rule:nonzero;fill:rgb(49.411765%,47.843137%,49.411765%);fill-opacity:1;" d="M 24.480469 16.992188 C 28.757812 16.992188 33.035156 16.992188 37.441406 16.992188 C 37.441406 17.5 37.441406 18.003906 37.441406 18.527344 C 33.164062 18.527344 28.886719 18.527344 24.480469 18.527344 C 24.480469 18.019531 24.480469 17.515625 24.480469 16.992188 Z M 24.480469 16.992188 "/>
<path style=" stroke:none;fill-rule:nonzero;fill:rgb(54.117647%,54.117647%,54.117647%);fill-opacity:1;" d="M 21.050781 20.691406 C 21.234375 20.6875 21.421875 20.683594 21.609375 20.679688 C 21.875 20.671875 22.144531 20.667969 22.414062 20.667969 C 22.496094 20.664062 22.578125 20.660156 22.664062 20.65625 C 23 20.660156 23.234375 20.667969 23.511719 20.867188 C 23.847656 21.230469 23.976562 21.519531 23.96875 22.019531 C 23.96875 22.132812 23.96875 22.246094 23.96875 22.359375 C 23.964844 22.476562 23.960938 22.589844 23.957031 22.710938 C 23.957031 22.824219 23.957031 22.941406 23.957031 23.0625 C 23.949219 23.640625 23.941406 24.078125 23.617188 24.574219 C 23.210938 24.832031 22.75 24.800781 22.285156 24.804688 C 22.207031 24.804688 22.125 24.804688 22.039062 24.804688 C 21.871094 24.808594 21.699219 24.808594 21.527344 24.808594 C 21.265625 24.808594 21.003906 24.816406 20.742188 24.820312 C 20.574219 24.820312 20.40625 24.820312 20.242188 24.820312 C 20.125 24.824219 20.125 24.824219 20.003906 24.828125 C 19.589844 24.824219 19.4375 24.804688 19.105469 24.535156 C 18.714844 24.035156 18.789062 23.539062 18.78125 22.917969 C 18.78125 22.789062 18.777344 22.65625 18.773438 22.527344 C 18.769531 22.339844 18.765625 22.148438 18.765625 21.960938 C 18.765625 21.847656 18.761719 21.734375 18.761719 21.617188 C 18.832031 21.222656 18.996094 21.085938 19.296875 20.832031 C 19.582031 20.542969 20.640625 20.695312 21.050781 20.691406 Z M 21.050781 20.691406 "/>
<path style=" stroke:none;fill-rule:nonzero;fill:rgb(48.627451%,47.843137%,49.411765%);fill-opacity:1;" d="M 11.519531 27.742188 C 14.671875 27.730469 17.820312 27.75 20.96875 27.792969 C 21.058594 27.792969 21.144531 27.792969 21.234375 27.796875 C 22.316406 27.808594 23.398438 27.824219 24.480469 27.839844 C 24.480469 28.285156 24.480469 28.726562 24.480469 29.183594 C 20.203125 29.183594 15.925781 29.183594 11.519531 29.183594 C 11.519531 28.707031 11.519531 28.234375 11.519531 27.742188 Z M 11.519531 27.742188 "/>
<path style=" stroke:none;fill-rule:nonzero;fill:rgb(98.039216%,98.039216%,98.039216%);fill-opacity:1;" d="M 24.753906 29.828125 C 24.847656 29.828125 24.9375 29.824219 25.035156 29.824219 C 25.132812 29.824219 25.230469 29.824219 25.335938 29.824219 C 25.4375 29.824219 25.539062 29.824219 25.644531 29.820312 C 25.863281 29.820312 26.078125 29.820312 26.296875 29.820312 C 26.625 29.820312 26.957031 29.816406 27.289062 29.8125 C 27.5 29.8125 27.710938 29.8125 27.921875 29.8125 C 28.019531 29.808594 28.117188 29.808594 28.21875 29.808594 C 28.796875 29.8125 29.128906 29.855469 29.566406 30.238281 C 29.816406 30.570312 29.855469 30.683594 29.855469 31.105469 C 29.539062 31.132812 29.539062 31.132812 29.183594 31.105469 C 29.148438 31.023438 29.117188 30.945312 29.082031 30.867188 C 28.925781 30.609375 28.925781 30.609375 28.699219 30.578125 C 28.425781 30.566406 28.160156 30.566406 27.886719 30.570312 C 27.738281 30.570312 27.738281 30.570312 27.585938 30.570312 C 27.375 30.570312 27.167969 30.574219 26.957031 30.578125 C 26.636719 30.582031 26.3125 30.582031 25.992188 30.582031 C 25.785156 30.585938 25.582031 30.585938 25.378906 30.589844 C 25.28125 30.589844 25.1875 30.589844 25.085938 30.589844 C 24.953125 30.59375 24.953125 30.59375 24.816406 30.59375 C 24.738281 30.59375 24.65625 30.597656 24.578125 30.597656 C 24.363281 30.605469 24.363281 30.605469 24.191406 30.816406 C 24.15625 31.0625 24.15625 31.0625 24.160156 31.339844 C 24.160156 31.429688 24.160156 31.523438 24.15625 31.621094 C 24.199219 31.917969 24.246094 31.980469 24.480469 32.160156 C 24.691406 32.203125 24.691406 32.203125 24.925781 32.191406 C 25.015625 32.191406 25.105469 32.191406 25.199219 32.191406 C 25.34375 32.191406 25.34375 32.191406 25.492188 32.1875 C 25.699219 32.191406 25.90625 32.191406 26.109375 32.191406 C 26.433594 32.191406 26.757812 32.191406 27.085938 32.1875 C 27.398438 32.183594 27.710938 32.1875 28.023438 32.1875 C 28.121094 32.1875 28.21875 32.183594 28.316406 32.183594 C 28.902344 32.191406 29.21875 32.277344 29.640625 32.691406 C 30.003906 33.121094 29.890625 33.742188 29.855469 34.273438 C 29.722656 34.6875 29.550781 34.914062 29.179688 35.152344 C 28.777344 35.324219 28.335938 35.289062 27.90625 35.285156 C 27.75 35.289062 27.75 35.289062 27.589844 35.289062 C 27.371094 35.289062 27.148438 35.289062 26.929688 35.289062 C 26.59375 35.285156 26.257812 35.289062 25.921875 35.292969 C 25.707031 35.292969 25.492188 35.292969 25.277344 35.292969 C 25.128906 35.292969 25.128906 35.292969 24.972656 35.296875 C 24.195312 35.285156 24.195312 35.285156 23.84375 35 C 23.507812 34.632812 23.425781 34.488281 23.425781 33.984375 C 23.742188 33.953125 23.742188 33.953125 24.097656 33.984375 C 24.128906 34.0625 24.164062 34.140625 24.199219 34.222656 C 24.355469 34.480469 24.355469 34.480469 24.582031 34.507812 C 24.851562 34.523438 25.121094 34.523438 25.390625 34.519531 C 25.542969 34.515625 25.542969 34.515625 25.691406 34.515625 C 25.902344 34.515625 26.113281 34.515625 26.324219 34.511719 C 26.644531 34.507812 26.96875 34.503906 27.289062 34.503906 C 27.492188 34.503906 27.695312 34.5 27.898438 34.5 C 27.996094 34.5 28.09375 34.5 28.195312 34.5 C 28.28125 34.496094 28.371094 34.496094 28.464844 34.492188 C 28.542969 34.492188 28.621094 34.492188 28.703125 34.492188 C 28.917969 34.480469 28.917969 34.480469 29.089844 34.273438 C 29.113281 33.972656 29.113281 33.972656 29.101562 33.636719 C 29.097656 33.523438 29.097656 33.40625 29.09375 33.289062 C 29.09375 33.203125 29.089844 33.113281 29.089844 33.023438 C 28.808594 32.929688 28.632812 32.917969 28.34375 32.914062 C 28.25 32.914062 28.15625 32.914062 28.0625 32.914062 C 27.960938 32.914062 27.863281 32.914062 27.757812 32.914062 C 27.546875 32.914062 27.335938 32.910156 27.125 32.910156 C 26.792969 32.90625 26.460938 32.902344 26.125 32.902344 C 25.804688 32.902344 25.484375 32.898438 25.160156 32.898438 C 25.0625 32.898438 24.960938 32.898438 24.859375 32.898438 C 24.167969 32.886719 24.167969 32.886719 23.796875 32.597656 C 23.339844 31.972656 23.335938 31.390625 23.425781 30.625 C 23.675781 30.058594 24.164062 29.832031 24.753906 29.828125 Z M 24.753906 29.828125 "/>
<path style=" stroke:none;fill-rule:nonzero;fill:rgb(51.764706%,51.764706%,51.764706%);fill-opacity:1;" d="M 16.703125 32.351562 C 16.882812 32.527344 16.871094 32.828125 16.914062 33.066406 C 17.1875 34.367188 18.003906 35.390625 19.109375 36.121094 C 20.125 36.726562 21.121094 37.15625 22.273438 37.441406 C 22.378906 37.472656 22.484375 37.503906 22.59375 37.539062 C 24.261719 37.976562 26.382812 37.914062 28.03125 37.441406 C 28.109375 37.417969 28.1875 37.394531 28.269531 37.371094 C 29.914062 36.894531 31.226562 36.257812 32.449219 35.039062 C 32.503906 34.984375 32.5625 34.925781 32.621094 34.867188 C 32.660156 34.828125 32.695312 34.792969 32.734375 34.753906 C 32.734375 34.910156 32.734375 35.070312 32.734375 35.230469 C 33.054688 35.230469 33.371094 35.230469 33.695312 35.230469 C 31.855469 37.253906 28.613281 38.074219 25.988281 38.226562 C 22.734375 38.34375 19.273438 37.636719 16.75 35.453125 C 15.90625 34.664062 15.132812 33.796875 14.878906 32.640625 C 15.242188 32.277344 16.214844 32.320312 16.703125 32.351562 Z M 16.703125 32.351562 "/>
<path style=" stroke:none;fill-rule:nonzero;fill:rgb(98.039216%,98.039216%,98.039216%);fill-opacity:1;" d="M 20.175781 20.042969 C 20.308594 20.042969 20.308594 20.042969 20.441406 20.042969 C 20.628906 20.042969 20.816406 20.042969 21 20.039062 C 21.285156 20.039062 21.570312 20.035156 21.851562 20.035156 C 22.035156 20.035156 22.214844 20.03125 22.398438 20.03125 C 22.480469 20.03125 22.566406 20.03125 22.652344 20.027344 C 23.226562 20.03125 23.648438 20.113281 24.082031 20.519531 C 24.128906 20.578125 24.175781 20.636719 24.222656 20.695312 C 24.292969 20.78125 24.292969 20.78125 24.363281 20.867188 C 24.703125 21.328125 24.597656 21.921875 24.597656 22.46875 C 24.601562 22.679688 24.601562 22.886719 24.605469 23.09375 C 24.605469 23.226562 24.605469 23.359375 24.609375 23.492188 C 24.609375 23.613281 24.609375 23.730469 24.609375 23.855469 C 24.566406 24.300781 24.425781 24.621094 24.121094 24.945312 C 24.066406 24.992188 24.011719 25.039062 23.953125 25.085938 C 23.867188 25.15625 23.867188 25.15625 23.78125 25.230469 C 23.503906 25.421875 23.261719 25.453125 22.933594 25.457031 C 22.855469 25.457031 22.777344 25.460938 22.695312 25.460938 C 22.566406 25.460938 22.566406 25.460938 22.4375 25.460938 C 22.351562 25.464844 22.261719 25.464844 22.171875 25.464844 C 21.988281 25.464844 21.800781 25.46875 21.617188 25.46875 C 21.332031 25.46875 21.050781 25.472656 20.765625 25.476562 C 20.585938 25.480469 20.40625 25.480469 20.222656 25.480469 C 20.140625 25.484375 20.054688 25.484375 19.96875 25.484375 C 19.359375 25.484375 19.003906 25.339844 18.5625 24.898438 C 18.074219 24.273438 18.121094 23.761719 18.117188 22.992188 C 18.113281 22.777344 18.109375 22.5625 18.105469 22.347656 C 18.105469 22.210938 18.105469 22.074219 18.101562 21.9375 C 18.101562 21.75 18.101562 21.75 18.097656 21.558594 C 18.164062 21.046875 18.425781 20.683594 18.828125 20.371094 C 19.28125 20.027344 19.625 20.046875 20.175781 20.042969 Z M 18.910156 21.214844 C 18.878906 21.246094 18.847656 21.28125 18.816406 21.3125 C 18.792969 21.703125 18.792969 22.09375 18.792969 22.480469 C 18.792969 22.679688 18.789062 22.875 18.785156 23.070312 C 18.785156 23.191406 18.785156 23.316406 18.785156 23.445312 C 18.785156 23.558594 18.78125 23.671875 18.78125 23.789062 C 18.820312 24.128906 18.898438 24.304688 19.105469 24.574219 C 19.476562 24.824219 19.789062 24.796875 20.222656 24.792969 C 20.304688 24.792969 20.386719 24.792969 20.46875 24.792969 C 20.640625 24.792969 20.8125 24.792969 20.988281 24.792969 C 21.25 24.792969 21.511719 24.792969 21.777344 24.792969 C 21.945312 24.792969 22.113281 24.792969 22.28125 24.792969 C 22.359375 24.792969 22.4375 24.792969 22.519531 24.792969 C 23.09375 24.792969 23.09375 24.792969 23.617188 24.574219 C 24 23.984375 23.957031 23.394531 23.957031 22.710938 C 23.960938 22.59375 23.964844 22.480469 23.96875 22.359375 C 23.96875 22.25 23.96875 22.136719 23.96875 22.019531 C 23.972656 21.917969 23.972656 21.816406 23.972656 21.714844 C 23.875 21.277344 23.6875 21 23.328125 20.734375 C 23.027344 20.644531 22.742188 20.644531 22.425781 20.652344 C 22.34375 20.652344 22.257812 20.652344 22.167969 20.652344 C 21.988281 20.652344 21.808594 20.65625 21.628906 20.660156 C 21.355469 20.664062 21.078125 20.664062 20.804688 20.660156 C 20.628906 20.664062 20.453125 20.664062 20.28125 20.664062 C 20.199219 20.664062 20.117188 20.664062 20.03125 20.664062 C 19.492188 20.679688 19.261719 20.773438 18.910156 21.214844 Z M 18.910156 21.214844 "/>
<path style=" stroke:none;fill-rule:nonzero;fill:rgb(97.254902%,97.254902%,97.254902%);fill-opacity:1;" d="M 3.371094 20.042969 C 3.457031 20.039062 3.542969 20.039062 3.632812 20.039062 C 3.820312 20.039062 4.003906 20.035156 4.191406 20.035156 C 4.472656 20.035156 4.753906 20.03125 5.035156 20.027344 C 5.21875 20.023438 5.398438 20.023438 5.578125 20.023438 C 5.660156 20.019531 5.746094 20.019531 5.832031 20.019531 C 6.398438 20.019531 6.820312 20.132812 7.296875 20.449219 C 7.589844 20.753906 7.761719 21.082031 7.804688 21.503906 C 7.796875 21.566406 7.785156 21.628906 7.777344 21.695312 C 7.554688 21.695312 7.332031 21.695312 7.105469 21.695312 C 7.042969 21.527344 6.980469 21.359375 6.917969 21.191406 C 6.777344 20.960938 6.683594 20.925781 6.433594 20.832031 C 6.148438 20.8125 5.875 20.800781 5.59375 20.800781 C 5.511719 20.800781 5.429688 20.796875 5.34375 20.796875 C 5.171875 20.796875 5 20.796875 4.828125 20.796875 C 4.566406 20.796875 4.304688 20.792969 4.042969 20.789062 C 3.875 20.789062 3.707031 20.789062 3.539062 20.789062 C 3.460938 20.785156 3.382812 20.785156 3.304688 20.785156 C 2.917969 20.785156 2.734375 20.804688 2.402344 21.015625 C 1.960938 21.476562 2.089844 22.082031 2.089844 22.6875 C 2.085938 22.804688 2.085938 22.921875 2.082031 23.046875 C 2.082031 23.160156 2.082031 23.273438 2.082031 23.394531 C 2.078125 23.496094 2.078125 23.601562 2.078125 23.710938 C 2.117188 24.039062 2.203125 24.214844 2.398438 24.480469 C 2.773438 24.730469 3.089844 24.699219 3.523438 24.699219 C 3.601562 24.699219 3.683594 24.699219 3.769531 24.699219 C 3.941406 24.699219 4.117188 24.699219 4.289062 24.695312 C 4.550781 24.695312 4.816406 24.695312 5.082031 24.699219 C 5.25 24.699219 5.417969 24.699219 5.585938 24.699219 C 5.664062 24.699219 5.742188 24.699219 5.824219 24.699219 C 6.351562 24.699219 6.351562 24.699219 6.816406 24.480469 C 6.921875 24.316406 6.921875 24.316406 6.984375 24.132812 C 7.023438 24.023438 7.0625 23.917969 7.105469 23.808594 C 7.324219 23.808594 7.546875 23.808594 7.777344 23.808594 C 7.734375 24.332031 7.640625 24.65625 7.296875 25.054688 C 6.75 25.433594 6.242188 25.496094 5.589844 25.492188 C 5.460938 25.492188 5.460938 25.492188 5.328125 25.492188 C 5.144531 25.492188 4.960938 25.492188 4.777344 25.488281 C 4.5 25.488281 4.222656 25.488281 3.941406 25.492188 C 3.765625 25.492188 3.585938 25.492188 3.40625 25.492188 C 3.324219 25.492188 3.242188 25.492188 3.15625 25.492188 C 2.632812 25.484375 2.335938 25.402344 1.921875 25.054688 C 1.308594 24.378906 1.3125 23.855469 1.3125 22.964844 C 1.3125 22.765625 1.3125 22.566406 1.308594 22.367188 C 1.308594 22.242188 1.308594 22.113281 1.308594 21.984375 C 1.308594 21.871094 1.308594 21.753906 1.308594 21.636719 C 1.367188 21.117188 1.566406 20.742188 1.972656 20.417969 C 2.03125 20.371094 2.089844 20.324219 2.148438 20.273438 C 2.527344 19.996094 2.917969 20.042969 3.371094 20.042969 Z M 3.371094 20.042969 "/>
<path style=" stroke:none;fill-rule:nonzero;fill:rgb(98.431373%,98.431373%,98.431373%);fill-opacity:1;" d="M 41.089844 29.855469 C 43.082031 29.855469 45.078125 29.855469 47.136719 29.855469 C 47.136719 30.078125 47.136719 30.300781 47.136719 30.527344 C 46.25 30.527344 45.363281 30.527344 44.449219 30.527344 C 44.449219 32.082031 44.449219 33.632812 44.449219 35.230469 C 44.226562 35.230469 44.003906 35.230469 43.777344 35.230469 C 43.777344 33.679688 43.777344 32.128906 43.777344 30.527344 C 42.890625 30.527344 42 30.527344 41.089844 30.527344 C 41.089844 30.304688 41.089844 30.085938 41.089844 29.855469 Z M 41.089844 29.855469 "/>
<path style=" stroke:none;fill-rule:nonzero;fill:rgb(96.078431%,96.078431%,96.078431%);fill-opacity:1;" d="M 10.753906 20.0625 C 10.972656 20.0625 11.195312 20.0625 11.425781 20.0625 C 11.425781 21.617188 11.425781 23.167969 11.425781 24.769531 C 12.847656 24.769531 14.273438 24.769531 15.742188 24.769531 C 15.742188 24.988281 15.742188 25.210938 15.742188 25.441406 C 14.097656 25.441406 12.449219 25.441406 10.753906 25.441406 C 10.753906 23.664062 10.753906 21.890625 10.753906 20.0625 Z M 10.753906 20.0625 "/>
<path style=" stroke:none;fill-rule:nonzero;fill:rgb(0.784314%,0.784314%,0.784314%);fill-opacity:1;" d="M 18.816406 22.175781 C 19.273438 22.3125 19.6875 22.507812 20.109375 22.726562 C 20.175781 22.761719 20.242188 22.796875 20.3125 22.832031 C 20.523438 22.941406 20.738281 23.054688 20.953125 23.164062 C 21.164062 23.277344 21.375 23.386719 21.585938 23.496094 C 21.722656 23.566406 21.859375 23.636719 21.996094 23.707031 C 22.5 23.972656 23.007812 24.226562 23.519531 24.480469 C 23.488281 24.542969 23.457031 24.605469 23.425781 24.671875 C 22.835938 24.867188 22.15625 24.796875 21.542969 24.800781 C 21.363281 24.804688 21.1875 24.804688 21.011719 24.808594 C 20.757812 24.816406 20.503906 24.816406 20.246094 24.816406 C 20.128906 24.820312 20.128906 24.820312 20.011719 24.824219 C 19.59375 24.824219 19.441406 24.808594 19.105469 24.535156 C 18.851562 24.210938 18.804688 24.0625 18.804688 23.65625 C 18.808594 23.570312 18.808594 23.484375 18.808594 23.398438 C 18.808594 23.308594 18.808594 23.214844 18.808594 23.125 C 18.808594 23.035156 18.8125 22.941406 18.8125 22.847656 C 18.8125 22.625 18.8125 22.398438 18.816406 22.175781 Z M 18.816406 22.175781 "/>
<path style=" stroke:none;fill-rule:nonzero;fill:rgb(52.941176%,52.941176%,52.941176%);fill-opacity:1;" d="M 33.40625 30.527344 C 34.167969 30.527344 34.929688 30.527344 35.710938 30.527344 C 35.722656 31.726562 35.722656 31.726562 35.617188 32.160156 C 36.472656 32.160156 37.328125 32.160156 38.207031 32.160156 C 38.207031 32.191406 38.207031 32.222656 38.207031 32.257812 C 36.625 32.257812 35.039062 32.257812 33.40625 32.257812 C 33.40625 31.6875 33.40625 31.117188 33.40625 30.527344 Z M 33.40625 30.527344 "/>
<path style=" stroke:none;fill-rule:nonzero;fill:rgb(53.333333%,53.333333%,53.333333%);fill-opacity:1;" d="M 33.40625 32.832031 C 34.042969 32.863281 34.675781 32.894531 35.328125 32.929688 C 34.867188 34.152344 34.867188 34.152344 34.367188 34.558594 C 34.019531 34.632812 33.769531 34.605469 33.40625 34.558594 C 33.40625 33.988281 33.40625 33.417969 33.40625 32.832031 Z M 33.40625 32.832031 "/>
<path style=" stroke:none;fill-rule:nonzero;fill:rgb(3.921569%,3.921569%,3.921569%);fill-opacity:1;" d="M 21.984375 20.734375 C 23.167969 20.632812 23.167969 20.632812 23.546875 20.875 C 23.789062 21.160156 23.902344 21.3125 23.902344 21.695312 C 23.449219 21.558594 23.042969 21.371094 22.621094 21.15625 C 22.527344 21.109375 22.527344 21.109375 22.433594 21.0625 C 22.285156 20.984375 22.132812 20.910156 21.984375 20.832031 C 21.984375 20.800781 21.984375 20.769531 21.984375 20.734375 Z M 21.984375 20.734375 "/>
</g>
</svg>
